# AST/ASF file generated using VICON BodyLanguage
# -----------------------------------------------
:version 1.10
:name VICON
:units
  mass 1.0
  length 0.45
  angle deg
:documentation
   .ast/.asf automatically generated from VICON data using
   VICON BodyBuilder and BodyLanguage model FoxedUp or BRILLIANT.MOD
:root
   order TX TY TZ RX RY RZ
   axis XYZ
   position 0 0 0  
   orientation 0 0 0 
:bonedata
  begin
     id 1 
     name lhipjoint
     direction 0.558404 -0.748506 0.357664 
     length 2.4234 
     axis 0 0 0  XYZ
  end
  begin
     id 2 
     name lfemur
     direction 0.34202 -0.939693 0  
     length 7.14567  
     axis 0 0 20  XYZ
    dof rx ry rz
    limits (-160.0 20.0)
           (-70.0 70.0)
           (-60.0 70.0)
  end
  begin
     id 3 
     name ltibia
     direction 0.34202 -0.939693 0   
     length 8.13956   
     axis 0 0 20   XYZ
    dof rx
    limits (-10.0 170.0)
  end
  begin
     id 4 
     name lfoot
     direction 0.0791314 -0.217412 0.972867   
     length 2.00134   
     axis -90 7.62852e-016 20   XYZ
    dof rx rz
    limits (-45.0 90.0)
           (-70.0 20.0)
  end
  begin
     id 5 
     name ltoes
     direction 1.53547e-011 -4.21922e-011 1   
     length 1.00735   
     axis -90 7.62852e-016 20   XYZ
    dof rx
    limits (-90.0 20.0)
  end
  begin
     id 6 
     name rhipjoint
     direction -0.496392 -0.78327 0.374276   
     length 2.31584  
     axis 0 0 0  XYZ 
  end
  begin
     id 7 
     name rfemur
     direction -0.34202 -0.939693 0   
     length 7.47417   
     axis 0 0 -20   XYZ
    dof rx ry rz
    limits (-160.0 20.0)
           (-70.0 70.0)
           (-70.0 60.0)
  end
  begin
     id 8 
     name rtibia
     direction -0.34202 -0.939693 0   
     length 7.69071   
     axis 0 0 -20   XYZ
    dof rx
    limits (-10.0 170.0)
 end
 begin
     id 9 
     name rfoot
     direction -0.103069 -0.28318 0.953512   
     length 2.16135  
     axis -90 -7.62852e-016 -20   XYZ
    dof rx rz
    limits (-45.0 90.0)
           (-20.0 70.0)
  end
  begin
     id 10 
     name rtoes
     direction -1.53581e-011 -4.21904e-011 1   
     length 1.07867   
     axis -90 -7.62852e-016 -20   XYZ
    dof rx
    limits (-90.0 20.0)
  end
  begin
     id 11 
     name lowerback
     direction -0.0258961 0.994776 -0.0987407   
     length 2.19412   
     axis 0 0 0   XYZ
    dof rx ry rz
    limits (-20.0 45.0)
           (-30.0 30.0)
           (-30.0 30.0)
  end
  begin
     id 12 
     name upperback
     direction 0.0402454 0.999185 0.00320666   
     length 2.18445   
     axis 0 0 0   XYZ
    dof rx ry rz
    limits (-20.0 45.0)
           (-30.0 30.0)
           (-30.0 30.0)
  end
  begin
     id 13 
     name thorax
     direction 0.0519376 0.997415 0.0496558   
     length 2.21487   
     axis 0 0 0   XYZ
    dof rx ry rz
    limits (-20.0 45.0)
           (-30.0 30.0)
           (-30.0 30.0)
  end
  begin
     id 14 
     name lowerneck
     direction -0.0921276 0.983211 0.157506   
     length 1.61201   
     axis 0 0 0   XYZ
    dof rx ry rz
    limits (-20.0 45.0)
           (-30.0 30.0)
           (-30.0 30.0)
  end
  begin
     id 15 
     name upperneck
     direction 0.0820814 0.98162 -0.172292   
     length 1.65275   
     axis 0 0 0   XYZ
    dof rx ry rz
    limits (-20.0 45.0)
           (-30.0 30.0)
           (-30.0 30.0)
  end
  begin
     id 16
     name head
     direction 0.0336554 0.996413 -0.0776455  
     length 1.66415  
     axis 0 0 0   XYZ
    dof rx ry rz
    limits (-20.0 45.0)
           (-30.0 30.0)
           (-30.0 30.0)
  end
  begin
     id 17 
     name lclavicle
     direction 0.94696 0.284418 -0.149576  
     length 3.41447  
     axis 0 0 0   XYZ
    dof ry rz
    limits (-20.0 10.0)
           (0.0 20.0)
  end
  begin
     id 18 
     name lhumerus
     direction 1 -0.000130264 -9.81312e-005   
     length 5.19964   
     axis 180 -30 -90   XYZ
    dof rx ry rz
    limits (-60.0 90.0)
           (-90.0 90.0)
           (-90.0 90.0)
  end
  begin
     id 19
     name lradius
     direction 1 -4.48961e-011 1.43854e-026   
     length 3.32189   
     axis 180 -30 -90   XYZ
    dof rx
    limits (-10.0 170.0)
  end
  begin
     id 20
     name lwrist
     direction 1 -4.48958e-011 3.1502e-026   
     length 1.66095   
     axis -1.97692e-014 90 90   XYZ
    dof ry
    limits (-180.0 0.0)
 end
  begin
     id 21 
     name lhand
     direction 1 -4.48927e-011 6.3004e-026   
     length 0.645616   
     axis -4.02019e-014 90 90   XYZ
    dof rx rz
    limits (-90.0 90.0)
           (-45.0 45.0)
  end
  begin
     id 22 
     name lfingers
     direction 1 -4.4904e-011 1.26008e-025   
     length 0.520512   
     axis -8.04039e-014 90 90   XYZ
    dof rx
    limits (0.0 90.0)
  end
  begin
     id 23
     name lthumb
     direction 0.707107 -6.34947e-011 0.707107   
     length 0.747354   
     axis -90 45 2.85299e-015   XYZ
    dof rx rz
    limits (-45.0 45.0)
           (-45.0 45.0)
  end
  begin
     id 24 
     name rclavicle
     direction -0.909391 0.383475 -0.161107   
     length 3.25176  
     axis 0 0 0   XYZ 
    dof ry rz
    limits (-10.0 20.0)
           (-20.0 0.0)
  end
  begin
     id 25 
     name rhumerus
     direction -1 -4.48965e-011 -1.81384e-027  
     length 5.6595   
     axis 180 30 90   XYZ
    dof rx ry rz
    limits (-90.0 60.0)
           (-90.0 90.0)
           (-90.0 90.0)
  end
  begin
     id 26 
     name rradius
     direction -1 -4.48996e-011 -8.09397e-027   
     length 3.37604   
     axis 180 30 90   XYZ
    dof rx
    limits (-10.0 170.0)
  end
  begin
     id 27 
     name rwrist
     direction -1 -4.48927e-011 -1.56669e-026   
     length 1.68802   
     axis 1.21142e-014 -90 -90   XYZ
    dof ry
    limits (-180.0 0.0)
  end
  begin
     id 28
     name rhand
     direction -1 -4.48912e-011 -3.13339e-026   
     length 0.824702   
     axis 1.99937e-014 -90 -90   XYZ
    dof rx rz
    limits (-90.0 90.0)
           (-45.0 45.0)
  end
  begin
     id 29
     name rfingers
     direction -1 -4.49011e-011 -6.26677e-026   
     length 0.664896   
     axis 3.99874e-014 -90 -90   XYZ
    dof rx
    limits (0.0 90.0)
  end
  begin
     id 30
     name rthumb
     direction -0.707107 -6.34931e-011 0.707107   
     length 0.954662   
     axis -90 -45 -2.85299e-015   XYZ
    dof rx rz
    limits (-45.0 45.0)
           (-45.0 45.0)
  end
:hierarchy
  begin
    root lhipjoint rhipjoint lowerback
    lhipjoint lfemur
    lfemur ltibia
    ltibia lfoot
    lfoot ltoes
    rhipjoint rfemur
    rfemur rtibia
    rtibia rfoot
    rfoot rtoes
    lowerback upperback
    upperback thorax
    thorax lowerneck lclavicle rclavicle
    lowerneck upperneck
    upperneck head
    lclavicle lhumerus
    lhumerus lradius
    lradius lwrist
    lwrist lhand lthumb
    lhand lfingers
    rclavicle rhumerus
    rhumerus rradius
    rradius rwrist
    rwrist rhand rthumb
    rhand rfingers
  end

#!OML:ASF F:\VICON\USERDATA\INSTALL\rory3\rory3.ASF
:FULLY-SPECIFIED
:DEGREES
233
root 11.6135 17.7553 -38.9285 16.7953 -47.7561 -8.58615
lowerback 7.97193 -1.27749 -4.01206
upperback 0.927014 -1.96905 2.69806
thorax -3.27758 -0.92244 5.28139
lowerneck -16.0031 2.5754 -9.56209
upperneck 21.6957 4.33457 6.95831
head 9.05734 1.97227 4.51809
rclavicle 2.08724e-014 7.55382e-015
rhumerus -39.1373 -18.9106 -68.9713
rradius 32.6582
rwrist -13.5808
rhand -10.8518 17.0641
rfingers 7.12502
rthumb 15.1633 -12.3603
lclavicle 2.08724e-014 7.55382e-015
lhumerus -22.9787 20.9859 76.7821
lradius 30.1084
lwrist -3.56632
lhand -4.55278 32.4982
lfingers 7.12502
lthumb 21.2231 61.3564
rfemur -26.9146 1.70411 25.1304
rtibia 48.287
rfoot -20.3876 1.37157
rtoes 6.79101
lfemur -21.0111 15.0944 -18.5311
ltibia 59.4027
lfoot -7.78761 7.62048
ltoes -21.5657
234
root 11.5641 17.762 -38.8876 17.1538 -47.0849 -8.74649
lowerback 8.13867 -1.51045 -4.00877
upperback 0.710752 -2.27262 3.03655
thorax -3.54611 -1.05951 5.68051
lowerneck -15.9721 2.64985 -9.45252
upperneck 21.8844 4.47641 6.63666
head 9.11731 2.0042 4.4097
rclavicle 1.89839e-014 2.06736e-014
rhumerus -39.0425 -18.1975 -68.7971
rradius 32.5339
rwrist -13.8855
rhand -10.7958 16.9421
rfingers 7.12502
rthumb 15.2172 -12.4783
lclavicle 1.89839e-014 2.06736e-014
lhumerus -22.7823 19.6679 77.1788
lradius 29.7266
lwrist 0.380167
lhand -8.94593 31.4379
lfingers 7.12502
lthumb 16.9985 60.7142
rfemur -26.7965 0.975969 25.5096
rtibia 48.1272
rfoot -20.5753 1.34209
rtoes 6.31455
lfemur -22.5047 14.9565 -17.8974
ltibia 60.9926
lfoot -3.02732 5.93261
ltoes -5.46251
235
root 11.5099 17.715 -38.7869 17.2641 -47.3413 -9.42604
lowerback 8.08278 -1.37484 -3.3291
upperback 0.940539 -2.03073 3.13354
thorax -3.32609 -0.960932 5.36149
lowerneck -15.9522 2.66441 -9.51548
upperneck 21.978 4.52425 6.57237
head 9.14254 2.01065 4.40596
rclavicle -7.7526e-015 -2.78299e-015
rhumerus -38.9298 -18.2323 -68.5283
rradius 32.3855
rwrist -13.7707
rhand -10.3532 16.9172
rfingers 7.12502
rthumb 15.6435 -12.4703
lclavicle -7.7526e-015 -2.78299e-015
lhumerus -23.4238 19.9751 77.4235
lradius 30.2844
lwrist 0.579856
lhand -9.39611 31.0535
lfingers 7.12502
lthumb 16.5651 60.3664
rfemur -25.9636 0.730079 25.7968
rtibia 48.0168
rfoot -20.8056 1.54886
rtoes 4.74776
lfemur -22.6074 15.3544 -17.3925
ltibia 62.2693
lfoot -0.0434224 5.00006
ltoes -2.15896
236
root 11.4521 17.7133 -38.7479 17.5569 -47.2742 -9.806
lowerback 8.26912 -1.28723 -3.36526
upperback 0.941092 -1.9171 3.28753
thorax -3.43637 -0.900786 5.5409
lowerneck -15.89 2.61624 -9.43455
upperneck 21.8879 4.42612 6.59415
head 9.10992 1.97657 4.3842
rclavicle -3.6477e-014 5.96354e-015
rhumerus -38.7865 -18.5516 -68.3422
rradius 32.1971
rwrist -13.485
rhand -10.1468 16.9337
rfingers 7.12502
rthumb 15.8423 -12.4382
lclavicle -3.6477e-014 5.96354e-015
lhumerus -23.7728 21.1657 76.9974
lradius 30.6654
lwrist -2.72717
lhand -5.05828 31.5433
lfingers 7.12502
lthumb 20.7374 60.4553
rfemur -25.522 0.879284 26.1922
rtibia 47.7351
rfoot -20.811 0.999893
rtoes 3.44215
lfemur -23.5754 15.7526 -16.705
ltibia 63.5931
lfoot 2.57221 3.20326
ltoes 0.535979
237
root 11.3939 17.7245 -38.6753 17.5961 -47.3657 -10.1015
lowerback 8.37789 -1.18092 -3.18235
upperback 1.04884 -1.76153 3.35148
thorax -3.40702 -0.829308 5.48912
lowerneck -15.8967 2.58893 -9.29736
upperneck 21.8992 4.36759 6.53047
head 9.12572 1.95311 4.33384
rclavicle 2.01766e-014 1.35174e-014
rhumerus -38.6445 -18.4366 -68.3422
rradius 32.1698
rwrist -13.7744
rhand -10.4423 16.9005
rfingers 7.12502
rthumb 15.5576 -12.4937
lclavicle 2.01766e-014 1.35174e-014
lhumerus -23.9578 21.0699 77.1249
lradius 30.9175
lwrist -2.17942
lhand -5.80356 30.8288
lfingers 7.12502
lthumb 20.0212 59.8173
rfemur -24.7531 1.01287 26.3406
rtibia 47.3638
rfoot -20.9213 0.98707
rtoes 2.97183
lfemur -24.2391 15.8487 -16.1873
ltibia 64.7956
lfoot 5.30353 1.59064
ltoes 9.52779
238
root 11.3401 17.7543 -38.6168 17.8928 -46.9636 -10.2664
lowerback 8.43188 -1.25654 -3.13774
upperback 0.939211 -1.85028 3.60032
thorax -3.53425 -0.867914 5.74179
lowerneck -15.9718 2.60411 -9.42186
upperneck 22.1648 4.42692 6.51486
head 9.22418 1.96033 4.36825
rclavicle -6.13251e-014 6.36111e-015
rhumerus -38.5232 -18.0536 -68.1686
rradius 32.2007
rwrist -14.1406
rhand -10.523 16.8136
rfingers 7.12502
rthumb 15.48 -12.5866
lclavicle -6.13251e-014 6.36111e-015
lhumerus -24.278 21.298 77.2766
lradius 31.252
lwrist -2.28124
lhand -5.70253 30.9013
lfingers 7.12502
lthumb 20.1183 59.8796
rfemur -24.3565 0.893357 26.579
rtibia 46.8515
rfoot -20.9872 0.856036
rtoes 3.21767
lfemur -25.3848 15.6358 -15.6588
ltibia 65.9143
lfoot 8.54453 -0.0583209
ltoes 22.6432
239
root 11.2856 17.7695 -38.5441 18.0487 -46.9342 -10.5063
lowerback 8.49218 -1.22465 -3.01345
upperback 0.959515 -1.79478 3.71549
thorax -3.55369 -0.842067 5.78878
lowerneck -15.9676 2.54529 -9.62588
upperneck 22.2778 4.35032 6.70344
head 9.2586 1.92502 4.46406
rclavicle 7.77248e-014 -3.77691e-014
rhumerus -38.3591 -17.9646 -68.0269
rradius 32.1891
rwrist -14.1702
rhand -10.2676 16.8323
rfingers 7.12502
rthumb 15.7259 -12.5487
lclavicle 7.77248e-014 -3.77691e-014
lhumerus -24.4649 21.3093 77.292
lradius 31.4714
lwrist -2.6222
lhand -4.98185 31.5156
lfingers 7.12502
lthumb 20.8109 60.4195
rfemur -23.7802 0.954021 26.713
rtibia 46.4447
rfoot -20.9816 0.678479
rtoes 2.07296
lfemur -26.181 15.5214 -15.2151
ltibia 66.9866
lfoot 11.4865 -1.4787
ltoes 34.871
240
root 11.2285 17.7781 -38.4509 17.9816 -47.3264 -10.7799
lowerback 8.44608 -1.02436 -2.66321
upperback 1.23049 -1.50583 3.57361
thorax -3.29357 -0.716047 5.39809
lowerneck -16.317 2.39252 -9.42924
upperneck 22.4447 4.10986 6.74096
head 9.40778 1.83193 4.43627
rclavicle 2.78299e-015 -2.42517e-014
rhumerus -38.1222 -18.0901 -68.2035
rradius 32.278
rwrist -14.3136
rhand -10.1215 16.9172
rfingers 7.12502
rthumb 15.8666 -12.4528
lclavicle 2.78299e-015 -2.42517e-014
lhumerus -24.1277 20.7718 77.2758
lradius 31.4341
lwrist -2.47024
lhand -4.74927 31.7143
lfingers 7.12502
lthumb 21.0343 60.5935
rfemur -22.929 1.29771 26.6345
rtibia 46.1143
rfoot -21.0958 0.782683
rtoes 1.41555
lfemur -26.4625 15.5331 -14.9203
ltibia 67.8907
lfoot 3.74258 0.214141
ltoes 4.44556
